<?xml version="1.0" encoding="UTF-8" standalone="no"?>
<svg xmlns="http://www.w3.org/2000/svg" height="388px" width="1225px" version="1.1" xmlns:xlink="http://www.w3.org/1999/xlink" viewBox="0 0 1225 388"><!-- Generator: Sketch 48.2 (47327) - http://www.bohemiancoding.com/sketch -->
 <title>cloud-init-logo</title>
 <desc>Created with Sketch.</desc>
 <g id="Page-1" fill-rule="evenodd" fill="none">
  <g id="cloud-init-logo">
   <path id="cloud-init" fill="#000" d="m539.4 255.96c-7.12 0-13.41-1.13-18.87-3.38-5.46-2.26-10-5.49-13.61-9.7-3.62-4.22-6.38-9.26-8.28-15.14-1.9-5.87-2.85-12.37-2.85-19.49 0-7.23 0.98-13.82 2.94-19.75 1.96-5.94 4.77-11.04 8.45-15.31s8.13-7.57 13.35-9.88c5.22-2.32 11.1-3.47 17.62-3.47 4.99 0 9.65 0.41 13.98 1.24s7.68 1.9 10.05 3.21l-3.02 9.97c-2.38-1.19-5.05-2.14-8.01-2.85-2.97-0.71-6.94-1.07-11.93-1.07-10.2 0-17.95 3.29-23.23 9.88s-7.92 15.93-7.92 28.03c0 5.46 0.6 10.48 1.78 15.05 1.19 4.56 3.12 8.48 5.79 11.74 2.67 3.27 6.11 5.82 10.32 7.66s9.35 2.76 15.4 2.76c4.98 0 9.16-0.57 12.55-1.7 3.38-1.12 5.84-2.1 7.38-2.93l2.5 9.97c-2.14 1.18-5.49 2.34-10.06 3.47-4.57 1.12-9.35 1.69-14.33 1.69zm67.11-0.36c-3.92-0.12-7.33-0.62-10.24-1.51s-5.34-2.26-7.3-4.09c-1.96-1.84-3.44-4.22-4.45-7.12-1.01-2.91-1.51-6.56-1.51-10.95v-113.92l11.57-2.14v115.7c0 2.85 0.27 5.13 0.8 6.85 0.54 1.73 1.34 3.09 2.4 4.1 1.07 1.01 2.47 1.75 4.19 2.22 1.72 0.48 3.76 0.89 6.14 1.25l-1.6 9.61zm100.57-47.52c0 7.23-1.04 13.82-3.12 19.75-2.08 5.94-4.98 10.98-8.72 15.13-3.74 4.16-8.16 7.39-13.26 9.7-5.1 2.32-10.74 3.48-16.91 3.48s-11.81-1.16-16.91-3.48c-5.1-2.31-9.52-5.54-13.26-9.7-3.74-4.15-6.65-9.19-8.72-15.13-2.08-5.93-3.12-12.52-3.12-19.75 0-7.24 1.04-13.83 3.12-19.76 2.07-5.94 4.98-11.01 8.72-15.22s8.16-7.48 13.26-9.79c5.1-2.32 10.74-3.47 16.91-3.47s11.81 1.15 16.91 3.47c5.1 2.31 9.52 5.58 13.26 9.79s6.64 9.28 8.72 15.22c2.08 5.93 3.12 12.52 3.12 19.76zm-12.29 0c0-11.51-2.67-20.68-8.01-27.5-5.34-6.83-12.57-10.24-21.71-10.24s-16.38 3.41-21.72 10.24c-5.34 6.82-8.01 15.99-8.01 27.5s2.67 20.64 8.01 27.41c5.34 6.76 12.58 10.14 21.72 10.14s16.37-3.38 21.71-10.14c5.34-6.77 8.01-15.9 8.01-27.41zm108.05 42.72c-3.44 0.95-8.07 2.01-13.88 3.2-5.82 1.19-12.94 1.78-21.36 1.78-6.89 0-12.64-1.01-17.27-3.03-4.63-2.01-8.37-4.86-11.21-8.54-2.85-3.68-4.9-8.13-6.14-13.35-1.25-5.22-1.87-10.98-1.87-17.27v-51.62h11.57v47.89c0 6.52 0.47 12.04 1.42 16.55s2.49 8.16 4.63 10.95c2.13 2.79 4.89 4.8 8.27 6.05 3.39 1.25 7.51 1.87 12.38 1.87 5.45 0 10.2-0.3 14.24-0.89 4.03-0.6 6.58-1.13 7.65-1.6v-80.82h11.57v88.83zm103.77 0.35c-3.44 1.19-7.83 2.32-13.17 3.38-5.34 1.07-12.1 1.61-20.29 1.61-6.76 0-12.9-1.1-18.42-3.3-5.52-2.19-10.27-5.37-14.24-9.52-3.98-4.15-7.06-9.2-9.26-15.13-2.19-5.93-3.29-12.64-3.29-20.11 0-7.01 0.92-13.44 2.76-19.32 1.84-5.87 4.54-10.94 8.1-15.22 3.56-4.27 7.92-7.59 13.08-9.96 5.16-2.38 11.06-3.56 17.71-3.56 6.05 0 11.3 0.86 15.75 2.58s7.69 3.35 9.7 4.89v-49.48l11.57-2.14v135.28zm-11.57-72.44c-1.06-0.83-2.4-1.72-4-2.67s-3.47-1.84-5.61-2.67c-2.13-0.83-4.45-1.52-6.94-2.05-2.49-0.54-5.1-0.8-7.83-0.8-5.7 0-10.47 1.01-14.33 3.02-3.86 2.02-6.97 4.72-9.35 8.1-2.37 3.39-4.09 7.36-5.16 11.93s-1.6 9.4-1.6 14.51c0 12.1 3.03 21.39 9.08 27.85 6.05 6.47 14.06 9.7 24.03 9.7 5.69 0 10.29-0.26 13.79-0.8 3.5-0.53 6.14-1.09 7.92-1.69v-64.43zm31.87 18.15h40.22v11.22h-40.22v-11.22zm72.09 57.14h-11.57v-92.03h11.57v92.03zm2.7-119.79c0 2.73-0.9 4.89-2.53 6.49-1.66 1.61-3.67 2.41-6.05 2.41-2.37 0-4.39-0.8-6.05-2.41-1.66-1.6-2.49-3.76-2.49-6.49s0.83-4.9 2.49-6.5 3.68-2.4 6.05-2.4c2.38 0 4.39 0.8 6.05 2.4 1.63 1.6 2.53 3.77 2.53 6.5zm27.9 30.97c3.5-0.95 8.1-2.02 13.9-3.21 5.8-1.18 12.9-1.78 21.4-1.78 7 0 12.8 1.01 17.5 3.03s8.4 4.89 11.2 8.63 4.8 8.22 6 13.44 1.7 10.98 1.7 17.27v51.44h-11.5v-47.7c0-6.53-0.5-12.05-1.4-16.56-0.8-4.51-2.3-8.19-4.4-11.03-2.1-2.85-4.8-4.9-8.2-6.15-3.4-1.24-7.6-1.86-12.7-1.86-5.5 0-10.2 0.29-14.2 0.89-4 0.59-6.5 1.12-7.7 1.6v80.81h-11.6v-88.82zm112.9 88.82h-11.6v-92.03h11.6v92.03zm2.6-119.79c0 2.73-0.8 4.89-2.5 6.49-1.6 1.61-3.6 2.41-6 2.41s-4.4-0.8-6.1-2.41c-1.6-1.6-2.5-3.76-2.5-6.49s0.9-4.9 2.5-6.5c1.7-1.6 3.7-2.4 6.1-2.4s4.4 0.8 6 2.4c1.7 1.6 2.5 3.77 2.5 6.5zm38.8 27.76h36.7v9.79h-36.7v48.95c0 5.23 0.5 9.47 1.4 12.73s2.1 5.79 3.8 7.57 3.7 2.96 6.1 3.56c2.3 0.59 4.9 0.89 7.8 0.89 4.8 0 8.8-0.57 11.7-1.7 3-1.12 5.3-2.16 7-3.11l2.8 9.61c-1.6 1.07-4.5 2.29-8.7 3.65-4.2 1.37-8.7 2.05-13.5 2.05-5.7 0-10.5-0.74-14.4-2.23-3.8-1.48-6.9-3.73-9.2-6.76s-4-6.79-4.9-11.3c-1-4.51-1.4-9.85-1.4-16.02v-84.73l11.5-2.14v29.19z"/>
   <path id="Shape" fill-rule="nonzero" fill="#E95420" d="m229.59 220.92c5.02 0 9.08 4.07 9.08 9.08s-4.06 9.07-9.08 9.07c-5 0-9.07-4.06-9.07-9.07s4.07-9.07 9.07-9.07v-0.01zm50.97-27.38h-76.22l-109.82-72.57 4.553-10.97 82.717 16.99 0.25-62.716 42.14 48.896 68.51-74.463 10.18 6.04-33.3 98.153 100.34-29.01c-30.43-67.071-98.04-113.84-176.37-113.84-106.71 0.003032-193.53 86.828-193.53 193.55-0.004 58.21 25.823 110.5 66.62 146v-36.95c0-10.03 8.122-18.14 18.145-18.14 10.02 0 18.145 8.12 18.145 18.14v61.93c3.95 2.1 7.99 4.07 12.1 5.9v-67.83c0-10.03 8.12-18.14 18.14-18.14s18.14 8.12 18.14 18.14v79.85c3.99 0.89 8.03 1.66 12.1 2.3v-82.15c0-10.02 8.13-18.14 18.15-18.14s18.14 8.12 18.14 18.14v84.21c0 0.07-0.01 0.13-0.01 0.19 4.07-0.13 8.1-0.38 12.1-0.76v-156.23c0-10.02 8.13-18.14 18.15-18.14s18.14 8.13 18.14 18.14v149.26c80.26-23.61 139.02-97.92 139.02-185.72 0-22.31-3.81-43.75-10.79-63.71l-95.75 63.65h0.01z"/>
  </g>
 </g>
</svg>
